<svg width="211" height="42" viewBox="0 0 211 42" fill="none" xmlns="http://www.w3.org/2000/svg">
<path d="M87.6715 17.457H82.2276C82.1282 16.7527 81.9252 16.1271 81.6186 15.5803C81.312 15.0251 80.9184 14.5528 80.4379 14.1634C79.9573 13.7739 79.4021 13.4756 78.7724 13.2685C78.1509 13.0613 77.4756 12.9577 76.7464 12.9577C75.429 12.9577 74.2814 13.285 73.3036 13.9396C72.3259 14.5859 71.5677 15.5305 71.0291 16.7734C70.4905 18.008 70.2212 19.5078 70.2212 21.2727C70.2212 23.0874 70.4905 24.612 71.0291 25.8466C71.576 27.0812 72.3383 28.0134 73.3161 28.6431C74.2938 29.2728 75.4248 29.5877 76.7092 29.5877C77.43 29.5877 78.0971 29.4924 78.7102 29.3018C79.3317 29.1113 79.8827 28.8337 80.3633 28.4691C80.8439 28.0962 81.2416 27.6446 81.5565 27.1143C81.8796 26.584 82.1033 25.9792 82.2276 25.2997L87.6715 25.3246C87.5307 26.4929 87.1785 27.6198 86.6151 28.7053C86.0599 29.7824 85.31 30.7478 84.3654 31.6012C83.4291 32.4464 82.3105 33.1175 81.0096 33.6147C79.717 34.1036 78.2545 34.348 76.6222 34.348C74.3518 34.348 72.3217 33.8343 70.532 32.8068C68.7505 31.7794 67.3419 30.292 66.3061 28.3448C65.2786 26.3976 64.7649 24.0402 64.7649 21.2727C64.7649 18.4969 65.2869 16.1354 66.331 14.1882C67.375 12.241 68.7919 10.7578 70.5817 9.73864C72.3714 8.71117 74.3849 8.19744 76.6222 8.19744C78.0971 8.19744 79.4643 8.40459 80.7237 8.81889C81.9915 9.23319 83.1142 9.83807 84.092 10.6335C85.0697 11.4207 85.8652 12.386 86.4783 13.5295C87.0998 14.6729 87.4975 15.9821 87.6715 17.457ZM95.4396 34H89.6726L98.4599 8.54545H105.395L114.17 34H108.403L102.027 14.3622H101.828L95.4396 34ZM95.0792 23.9947H108.701V28.1957H95.0792V23.9947ZM117.234 34V8.54545H127.276C129.199 8.54545 130.839 8.88932 132.198 9.57706C133.566 10.2565 134.605 11.2218 135.318 12.473C136.039 13.7159 136.399 15.1784 136.399 16.8604C136.399 18.5508 136.035 20.005 135.306 21.223C134.576 22.4328 133.52 23.3608 132.136 24.0071C130.761 24.6534 129.095 24.9766 127.14 24.9766H120.416V20.6513H126.27C127.297 20.6513 128.151 20.5104 128.83 20.2287C129.51 19.947 130.015 19.5244 130.346 18.9609C130.686 18.3975 130.856 17.6973 130.856 16.8604C130.856 16.0153 130.686 15.3027 130.346 14.7227C130.015 14.1426 129.505 13.7035 128.818 13.4052C128.138 13.0986 127.281 12.9453 126.245 12.9453H122.616V34H117.234ZM130.98 22.4162L137.307 34H131.366L125.176 22.4162H130.98ZM139.233 12.9826V8.54545H160.139V12.9826H152.346V34H147.026V12.9826H139.233ZM164.859 34H159.092L167.879 8.54545H174.814L183.589 34H177.822L171.446 14.3622H171.247L164.859 34ZM164.498 23.9947H178.12V28.1957H164.498V23.9947ZM167.779 6.0348L164.846 5.99751C164.846 4.41489 165.236 3.20099 166.014 2.35582C166.793 1.51065 167.75 1.08392 168.886 1.07564C169.466 1.07564 169.963 1.17093 170.377 1.3615C170.791 1.5438 171.168 1.75923 171.508 2.00781C171.848 2.25639 172.171 2.47597 172.478 2.66655C172.784 2.84884 173.116 2.93999 173.472 2.93999C173.952 2.9317 174.317 2.75355 174.566 2.40554C174.822 2.04924 174.951 1.58523 174.951 1.01349L177.847 1.1005C177.83 2.66655 177.433 3.8763 176.654 4.72976C175.875 5.57493 174.922 6.00166 173.795 6.00994C173.182 6.01823 172.664 5.92708 172.241 5.7365C171.827 5.54593 171.463 5.33049 171.148 5.0902C170.833 4.84162 170.526 4.62204 170.228 4.43146C169.93 4.24088 169.594 4.1456 169.221 4.1456C168.79 4.1456 168.442 4.31546 168.177 4.65518C167.912 4.99491 167.779 5.45478 167.779 6.0348ZM208.848 21.2727C208.848 24.0485 208.322 26.41 207.269 28.3572C206.225 30.3045 204.8 31.7918 202.994 32.8192C201.196 33.8384 199.174 34.348 196.928 34.348C194.666 34.348 192.636 33.8343 190.838 32.8068C189.04 31.7794 187.619 30.292 186.575 28.3448C185.531 26.3976 185.009 24.0402 185.009 21.2727C185.009 18.4969 185.531 16.1354 186.575 14.1882C187.619 12.241 189.04 10.7578 190.838 9.73864C192.636 8.71117 194.666 8.19744 196.928 8.19744C199.174 8.19744 201.196 8.71117 202.994 9.73864C204.8 10.7578 206.225 12.241 207.269 14.1882C208.322 16.1354 208.848 18.4969 208.848 21.2727ZM203.392 21.2727C203.392 19.4747 203.122 17.9583 202.584 16.7237C202.053 15.4891 201.303 14.5528 200.334 13.9148C199.365 13.2768 198.229 12.9577 196.928 12.9577C195.628 12.9577 194.492 13.2768 193.523 13.9148C192.553 14.5528 191.799 15.4891 191.261 16.7237C190.731 17.9583 190.465 19.4747 190.465 21.2727C190.465 23.0708 190.731 24.5871 191.261 25.8217C191.799 27.0563 192.553 27.9927 193.523 28.6307C194.492 29.2687 195.628 29.5877 196.928 29.5877C198.229 29.5877 199.365 29.2687 200.334 28.6307C201.303 27.9927 202.053 27.0563 202.584 25.8217C203.122 24.5871 203.392 23.0708 203.392 21.2727Z" fill="#8C0774"/>
<path d="M55 5.375V31.625C55 32.8281 54.4615 33.8581 53.3844 34.7148C52.3073 35.5716 51.0125 36 49.5 36H5.5C3.9875 36 2.69271 35.5716 1.61563 34.7148C0.538542 33.8581 0 32.8281 0 31.625V5.375C0 4.17188 0.538542 3.14193 1.61563 2.28516C2.69271 1.42839 3.9875 1 5.5 1H49.5C51.0125 1 52.3073 1.42839 53.3844 2.28516C54.4615 3.14193 55 4.17188 55 5.375ZM5.5 9.75H49.5V5.375H5.5V9.75ZM5.5 18.5V31.625H49.5V18.5H5.5Z" fill="#8C0774"/>
</svg>
