<svg width="74" height="60" viewBox="0 0 74 60" fill="none" xmlns="http://www.w3.org/2000/svg">
<rect width="74" height="60" rx="15" fill="#D9D9D9"/>
<path d="M19.4963 54C18.8227 54 18.2382 53.75 17.7429 53.25C17.2476 52.75 17 52.16 17 51.48V45.18C17 41.58 18.1095 38.4 20.3284 35.64C22.5473 32.88 25.4002 31.12 28.8871 30.36C27.3021 31.48 26.0738 32.89 25.2021 34.59C24.3304 36.29 23.8945 38.12 23.8945 40.08V51.48C23.8945 51.92 23.9539 52.36 24.0728 52.8C24.1917 53.24 24.3898 53.64 24.6672 54H19.4963ZM28.2333 54C27.5597 54 26.9752 53.75 26.4799 53.25C25.9846 52.75 25.737 52.16 25.737 51.48V40.08C25.737 37.28 26.7177 34.9 28.679 32.94C30.6404 30.98 33.0079 30 35.7816 30H47.0149C49.7885 30 52.1461 30.98 54.0877 32.94C56.0292 34.9 57 37.28 57 40.08V43.92C57 46.72 56.0292 49.1 54.0877 51.06C52.1461 53.02 49.7885 54 47.0149 54H28.2333ZM37.0297 24.96C34.4146 24.96 32.1956 24.04 30.373 22.2C28.5503 20.36 27.6389 18.12 27.6389 15.48C27.6389 12.84 28.5503 10.6 30.373 8.76C32.1956 6.92 34.4146 6 37.0297 6C39.6449 6 41.8638 6.92 43.6865 8.76C45.5092 10.6 46.4205 12.84 46.4205 15.48C46.4205 18.12 45.5092 20.36 43.6865 22.2C41.8638 24.04 39.6449 24.96 37.0297 24.96Z" fill="black"/>
</svg>
