<svg width="250" height="42" viewBox="0 0 250 42" fill="none" xmlns="http://www.w3.org/2000/svg">
<path d="M81.6715 17.457H76.2276C76.1282 16.7527 75.9252 16.1271 75.6186 15.5803C75.312 15.0251 74.9184 14.5528 74.4379 14.1634C73.9573 13.7739 73.4021 13.4756 72.7724 13.2685C72.1509 13.0613 71.4756 12.9577 70.7464 12.9577C69.429 12.9577 68.2814 13.285 67.3036 13.9396C66.3259 14.5859 65.5677 15.5305 65.0291 16.7734C64.4905 18.008 64.2212 19.5078 64.2212 21.2727C64.2212 23.0874 64.4905 24.612 65.0291 25.8466C65.576 27.0812 66.3383 28.0134 67.3161 28.6431C68.2938 29.2728 69.4248 29.5877 70.7092 29.5877C71.43 29.5877 72.0971 29.4924 72.7102 29.3018C73.3317 29.1113 73.8827 28.8337 74.3633 28.4691C74.8439 28.0962 75.2416 27.6446 75.5565 27.1143C75.8796 26.584 76.1033 25.9792 76.2276 25.2997L81.6715 25.3246C81.5307 26.4929 81.1785 27.6198 80.6151 28.7053C80.0599 29.7824 79.31 30.7478 78.3654 31.6012C77.4291 32.4464 76.3105 33.1175 75.0096 33.6147C73.717 34.1036 72.2545 34.348 70.6222 34.348C68.3518 34.348 66.3217 33.8343 64.532 32.8068C62.7505 31.7794 61.3419 30.292 60.3061 28.3448C59.2786 26.3976 58.7649 24.0402 58.7649 21.2727C58.7649 18.4969 59.2869 16.1354 60.331 14.1882C61.375 12.241 62.7919 10.7578 64.5817 9.73864C66.3714 8.71117 68.3849 8.19744 70.6222 8.19744C72.0971 8.19744 73.4643 8.40459 74.7237 8.81889C75.9915 9.23319 77.1142 9.83807 78.092 10.6335C79.0697 11.4207 79.8652 12.386 80.4783 13.5295C81.0998 14.6729 81.4975 15.9821 81.6715 17.457ZM85.5307 34V8.54545H95.5733C97.4957 8.54545 99.1363 8.88932 100.495 9.57706C101.862 10.2565 102.902 11.2218 103.615 12.473C104.336 13.7159 104.696 15.1784 104.696 16.8604C104.696 18.5508 104.332 20.005 103.602 21.223C102.873 22.4328 101.817 23.3608 100.433 24.0071C99.0576 24.6534 97.3921 24.9766 95.4366 24.9766H88.7125V20.6513H94.5666C95.594 20.6513 96.4475 20.5104 97.127 20.2287C97.8064 19.947 98.3118 19.5244 98.6433 18.9609C98.983 18.3975 99.1529 17.6973 99.1529 16.8604C99.1529 16.0153 98.983 15.3027 98.6433 14.7227C98.3118 14.1426 97.8023 13.7035 97.1145 13.4052C96.4351 13.0986 95.5775 12.9453 94.5417 12.9453H90.9125V34H85.5307ZM99.2772 22.4162L105.604 34H99.6625L93.4728 22.4162H99.2772ZM108.499 34V8.54545H125.651V12.9826H113.881V19.0479H124.769V23.4851H113.881V29.5629H125.701V34H108.499ZM138.954 34H129.93V8.54545H139.028C141.589 8.54545 143.793 9.05504 145.64 10.0742C147.488 11.0851 148.909 12.5393 149.903 14.4368C150.906 16.3343 151.407 18.6046 151.407 21.2479C151.407 23.8994 150.906 26.178 149.903 28.0838C148.909 29.9896 147.48 31.4521 145.616 32.4712C143.759 33.4904 141.539 34 138.954 34ZM135.312 29.3888H138.73C140.321 29.3888 141.659 29.1071 142.744 28.5437C143.838 27.9719 144.658 27.0895 145.205 25.8963C145.761 24.6948 146.038 23.1454 146.038 21.2479C146.038 19.367 145.761 17.8299 145.205 16.6367C144.658 15.4435 143.842 14.5652 142.757 14.0018C141.671 13.4383 140.333 13.1566 138.742 13.1566H135.312V29.3888ZM160.776 8.54545V34H155.394V8.54545H160.776ZM169.591 34H163.824L172.611 8.54545H179.547L188.321 34H182.554L176.178 14.3622H175.979L169.591 34ZM169.231 23.9947H182.853V28.1957H169.231V23.9947ZM174.177 6.08452L176.812 0.429332H181.709L177.918 6.08452H174.177ZM191.385 34V8.54545H201.428C203.35 8.54545 204.991 8.88932 206.35 9.57706C207.717 10.2565 208.757 11.2218 209.469 12.473C210.19 13.7159 210.551 15.1784 210.551 16.8604C210.551 18.5508 210.186 20.005 209.457 21.223C208.728 22.4328 207.671 23.3608 206.288 24.0071C204.912 24.6534 203.247 24.9766 201.291 24.9766H194.567V20.6513H200.421C201.449 20.6513 202.302 20.5104 202.981 20.2287C203.661 19.947 204.166 19.5244 204.498 18.9609C204.838 18.3975 205.007 17.6973 205.007 16.8604C205.007 16.0153 204.838 15.3027 204.498 14.7227C204.166 14.1426 203.657 13.7035 202.969 13.4052C202.29 13.0986 201.432 12.9453 200.396 12.9453H196.767V34H191.385ZM205.132 22.4162L211.458 34H205.517L199.327 22.4162H205.132ZM219.736 8.54545V34H214.354V8.54545H219.736ZM247.555 21.2727C247.555 24.0485 247.029 26.41 245.976 28.3572C244.932 30.3045 243.507 31.7918 241.701 32.8192C239.903 33.8384 237.881 34.348 235.635 34.348C233.373 34.348 231.343 33.8343 229.545 32.8068C227.747 31.7794 226.326 30.292 225.282 28.3448C224.238 26.3976 223.716 24.0402 223.716 21.2727C223.716 18.4969 224.238 16.1354 225.282 14.1882C226.326 12.241 227.747 10.7578 229.545 9.73864C231.343 8.71117 233.373 8.19744 235.635 8.19744C237.881 8.19744 239.903 8.71117 241.701 9.73864C243.507 10.7578 244.932 12.241 245.976 14.1882C247.029 16.1354 247.555 18.4969 247.555 21.2727ZM242.099 21.2727C242.099 19.4747 241.829 17.9583 241.291 16.7237C240.76 15.4891 240.01 14.5528 239.041 13.9148C238.072 13.2768 236.936 12.9577 235.635 12.9577C234.335 12.9577 233.199 13.2768 232.23 13.9148C231.26 14.5528 230.506 15.4891 229.968 16.7237C229.438 17.9583 229.172 19.4747 229.172 21.2727C229.172 23.0708 229.438 24.5871 229.968 25.8217C230.506 27.0563 231.26 27.9927 232.23 28.6307C233.199 29.2687 234.335 29.5877 235.635 29.5877C236.936 29.5877 238.072 29.2687 239.041 28.6307C240.01 27.9927 240.76 27.0563 241.291 25.8217C241.829 24.5871 242.099 23.0708 242.099 21.2727Z" fill="#8C0774"/>
<path d="M18.3333 23.5H27.5V20.5833H18.3333V23.5ZM18.3333 19.125H36.6667V16.2083H18.3333V19.125ZM18.3333 14.75H36.6667V11.8333H18.3333V14.75ZM13.75 29.3333C12.4896 29.3333 11.4106 29.0477 10.513 28.4766C9.61545 27.9054 9.16667 27.2188 9.16667 26.4167V8.91667C9.16667 8.11458 9.61545 7.42795 10.513 6.85677C11.4106 6.28559 12.4896 6 13.75 6H41.25C42.5104 6 43.5894 6.28559 44.487 6.85677C45.3845 7.42795 45.8333 8.11458 45.8333 8.91667V26.4167C45.8333 27.2188 45.3845 27.9054 44.487 28.4766C43.5894 29.0477 42.5104 29.3333 41.25 29.3333H13.75ZM13.75 26.4167H41.25V8.91667H13.75V26.4167ZM4.58333 35.1667C3.32292 35.1667 2.24392 34.8811 1.34635 34.3099C0.448785 33.7387 0 33.0521 0 32.25V11.8333H4.58333V32.25H36.6667V35.1667H4.58333Z" fill="#8C0774"/>
</svg>
