<svg width="231" height="42" viewBox="0 0 231 42" fill="none" xmlns="http://www.w3.org/2000/svg">
<path d="M73.2358 34H64.2124V8.54545H73.3104C75.8707 8.54545 78.0748 9.05504 79.9226 10.0742C81.7704 11.0851 83.1914 12.5393 84.1857 14.4368C85.1883 16.3343 85.6896 18.6046 85.6896 21.2479C85.6896 23.8994 85.1883 26.178 84.1857 28.0838C83.1914 29.9896 81.7621 31.4521 79.8977 32.4712C78.0417 33.4904 75.821 34 73.2358 34ZM69.5941 29.3888H73.0121C74.603 29.3888 75.9412 29.1071 77.0266 28.5437C78.1204 27.9719 78.9407 27.0895 79.4876 25.8963C80.0427 24.6948 80.3203 23.1454 80.3203 21.2479C80.3203 19.367 80.0427 17.8299 79.4876 16.6367C78.9407 15.4435 78.1245 14.5652 77.0391 14.0018C75.9536 13.4383 74.6154 13.1566 73.0245 13.1566H69.5941V29.3888ZM95.058 8.54545V34H89.6762V8.54545H95.058ZM120.777 8.54545V34H116.128L105.054 17.979H104.868V34H99.4858V8.54545H104.209L115.196 24.554H115.42V8.54545H120.777ZM125.223 34V8.54545H130.605V19.0479H141.53V8.54545H146.899V34H141.53V23.4851H130.605V34H125.223ZM151.336 34V8.54545H168.488V12.9826H156.718V19.0479H167.606V23.4851H156.718V29.5629H168.538V34H151.336ZM178.149 8.54545V34H172.767V8.54545H178.149ZM182.577 34V8.54545H192.619C194.542 8.54545 196.182 8.88932 197.541 9.57706C198.908 10.2565 199.948 11.2218 200.661 12.473C201.382 13.7159 201.742 15.1784 201.742 16.8604C201.742 18.5508 201.378 20.005 200.648 21.223C199.919 22.4328 198.863 23.3608 197.479 24.0071C196.103 24.6534 194.438 24.9766 192.483 24.9766H185.758V20.6513H191.612C192.64 20.6513 193.493 20.5104 194.173 20.2287C194.852 19.947 195.358 19.5244 195.689 18.9609C196.029 18.3975 196.199 17.6973 196.199 16.8604C196.199 16.0153 196.029 15.3027 195.689 14.7227C195.358 14.1426 194.848 13.7035 194.16 13.4052C193.481 13.0986 192.623 12.9453 191.588 12.9453H187.958V34H182.577ZM196.323 22.4162L202.649 34H196.708L190.519 22.4162H196.323ZM228.937 21.2727C228.937 24.0485 228.411 26.41 227.358 28.3572C226.314 30.3045 224.889 31.7918 223.083 32.8192C221.285 33.8384 219.263 34.348 217.017 34.348C214.755 34.348 212.725 33.8343 210.927 32.8068C209.129 31.7794 207.708 30.292 206.664 28.3448C205.62 26.3976 205.098 24.0402 205.098 21.2727C205.098 18.4969 205.62 16.1354 206.664 14.1882C207.708 12.241 209.129 10.7578 210.927 9.73864C212.725 8.71117 214.755 8.19744 217.017 8.19744C219.263 8.19744 221.285 8.71117 223.083 9.73864C224.889 10.7578 226.314 12.241 227.358 14.1882C228.411 16.1354 228.937 18.4969 228.937 21.2727ZM223.48 21.2727C223.48 19.4747 223.211 17.9583 222.672 16.7237C222.142 15.4891 221.392 14.5528 220.423 13.9148C219.453 13.2768 218.318 12.9577 217.017 12.9577C215.716 12.9577 214.581 13.2768 213.612 13.9148C212.642 14.5528 211.888 15.4891 211.35 16.7237C210.819 17.9583 210.554 19.4747 210.554 21.2727C210.554 23.0708 210.819 24.5871 211.35 25.8217C211.888 27.0563 212.642 27.9927 213.612 28.6307C214.581 29.2687 215.716 29.5877 217.017 29.5877C218.318 29.5877 219.453 29.2687 220.423 28.6307C221.392 27.9927 222.142 27.0563 222.672 25.8217C223.211 24.5871 223.48 23.0708 223.48 21.2727Z" fill="#8C0774"/>
<path d="M32.5 22.6875C30.4167 22.6875 28.6458 22.0495 27.1875 20.7734C25.7292 19.4974 25 17.9479 25 16.125C25 14.3021 25.7292 12.7526 27.1875 11.4766C28.6458 10.2005 30.4167 9.5625 32.5 9.5625C34.5833 9.5625 36.3542 10.2005 37.8125 11.4766C39.2708 12.7526 40 14.3021 40 16.125C40 17.9479 39.2708 19.4974 37.8125 20.7734C36.3542 22.0495 34.5833 22.6875 32.5 22.6875ZM15 29.25C13.625 29.25 12.4479 28.8216 11.4688 27.9648C10.4896 27.1081 10 26.0781 10 24.875V7.375C10 6.17188 10.4896 5.14193 11.4688 4.28516C12.4479 3.42839 13.625 3 15 3H50C51.375 3 52.5521 3.42839 53.5312 4.28516C54.5104 5.14193 55 6.17188 55 7.375V24.875C55 26.0781 54.5104 27.1081 53.5312 27.9648C52.5521 28.8216 51.375 29.25 50 29.25H15ZM20 24.875H45C45 23.6719 45.4896 22.6419 46.4688 21.7852C47.4479 20.9284 48.625 20.5 50 20.5V11.75C48.625 11.75 47.4479 11.3216 46.4688 10.4648C45.4896 9.60807 45 8.57812 45 7.375H20C20 8.57812 19.5104 9.60807 18.5312 10.4648C17.5521 11.3216 16.375 11.75 15 11.75V20.5C16.375 20.5 17.5521 20.9284 18.5312 21.7852C19.5104 22.6419 20 23.6719 20 24.875ZM47.5 38H5C3.625 38 2.44792 37.5716 1.46875 36.7148C0.489583 35.8581 0 34.8281 0 33.625V9.5625H5V33.625H47.5V38Z" fill="#8C0774"/>
</svg>
