<svg width="40" height="48" viewBox="0 0 40 48" fill="none" xmlns="http://www.w3.org/2000/svg">
<path d="M2.49629 48C1.82268 48 1.23824 47.75 0.742942 47.25C0.247647 46.75 0 46.16 0 45.48V39.18C0 35.58 1.10946 32.4 3.32838 29.64C5.5473 26.88 8.4002 25.12 11.8871 24.36C10.3021 25.48 9.0738 26.89 8.20208 28.59C7.33036 30.29 6.8945 32.12 6.8945 34.08V45.48C6.8945 45.92 6.95394 46.36 7.07281 46.8C7.19168 47.24 7.3898 47.64 7.66716 48H2.49629ZM11.2333 48C10.5597 48 9.97523 47.75 9.47994 47.25C8.98465 46.75 8.737 46.16 8.737 45.48V34.08C8.737 31.28 9.71768 28.9 11.679 26.94C13.6404 24.98 16.0079 24 18.7816 24H30.0149C32.7885 24 35.1461 24.98 37.0877 26.94C39.0292 28.9 40 31.28 40 34.08V37.92C40 40.72 39.0292 43.1 37.0877 45.06C35.1461 47.02 32.7885 48 30.0149 48H11.2333ZM20.0297 18.96C17.4146 18.96 15.1956 18.04 13.373 16.2C11.5503 14.36 10.6389 12.12 10.6389 9.48C10.6389 6.84 11.5503 4.6 13.373 2.76C15.1956 0.92 17.4146 0 20.0297 0C22.6449 0 24.8638 0.92 26.6865 2.76C28.5092 4.6 29.4205 6.84 29.4205 9.48C29.4205 12.12 28.5092 14.36 26.6865 16.2C24.8638 18.04 22.6449 18.96 20.0297 18.96Z" fill="#8C0774"/>
</svg>
