<svg width="37" height="30" viewBox="0 0 37 30" fill="none" xmlns="http://www.w3.org/2000/svg">
<path d="M14.3333 12C12.3625 12 10.6753 11.4125 9.27188 10.2375C7.8684 9.0625 7.16667 7.65 7.16667 6C7.16667 4.35 7.8684 2.9375 9.27188 1.7625C10.6753 0.5875 12.3625 0 14.3333 0C16.3042 0 17.9913 0.5875 19.3948 1.7625C20.7983 2.9375 21.5 4.35 21.5 6C21.5 7.65 20.7983 9.0625 19.3948 10.2375C17.9913 11.4125 16.3042 12 14.3333 12ZM14.3333 9C15.3188 9 16.1623 8.70625 16.8641 8.11875C17.5658 7.53125 17.9167 6.825 17.9167 6C17.9167 5.175 17.5658 4.46875 16.8641 3.88125C16.1623 3.29375 15.3188 3 14.3333 3C13.3479 3 12.5043 3.29375 11.8026 3.88125C11.1009 4.46875 10.75 5.175 10.75 6C10.75 6.825 11.1009 7.53125 11.8026 8.11875C12.5043 8.70625 13.3479 9 14.3333 9ZM34.2208 29.25L28.4875 24.45C27.8604 24.75 27.1885 25 26.4719 25.2C25.7552 25.4 24.9938 25.5 24.1875 25.5C21.9479 25.5 20.0443 24.8438 18.4766 23.5312C16.9089 22.2188 16.125 20.625 16.125 18.75C16.125 16.875 16.9089 15.2813 18.4766 13.9688C20.0443 12.6563 21.9479 12 24.1875 12C26.4271 12 28.3307 12.6563 29.8984 13.9688C31.4661 15.2813 32.25 16.875 32.25 18.75C32.25 19.425 32.1306 20.0625 31.8917 20.6625C31.6528 21.2625 31.3542 21.825 30.9958 22.35L36.7292 27.15L34.2208 29.25ZM27.3677 21.4125C28.2337 20.6875 28.6667 19.8 28.6667 18.75C28.6667 17.7 28.2337 16.8125 27.3677 16.0875C26.5017 15.3625 25.4417 15 24.1875 15C22.9333 15 21.8733 15.3625 21.0073 16.0875C20.1413 16.8125 19.7083 17.7 19.7083 18.75C19.7083 19.8 20.1413 20.6875 21.0073 21.4125C21.8733 22.1375 22.9333 22.5 24.1875 22.5C25.4417 22.5 26.5017 22.1375 27.3677 21.4125ZM0 24V19.8375C0 18.9875 0.253819 18.2 0.761458 17.475C1.2691 16.75 1.97083 16.2 2.86667 15.825C4.38958 15.175 6.1066 14.625 8.01771 14.175C9.92882 13.725 12.049 13.5 14.3781 13.5C14.0198 13.95 13.7137 14.4313 13.4599 14.9438C13.2061 15.4563 13.0045 15.9875 12.8552 16.5375C11.0635 16.6625 9.46597 16.9188 8.0625 17.3063C6.65903 17.6938 5.47951 18.1 4.52396 18.525C4.22535 18.65 3.99392 18.8313 3.82969 19.0688C3.66545 19.3063 3.58333 19.5625 3.58333 19.8375V21H12.8552C13.0045 21.55 13.2061 22.075 13.4599 22.575C13.7137 23.075 14.0198 23.55 14.3781 24H0Z" fill="#8C0774"/>
</svg>
