<svg width="31" height="32" viewBox="0 0 31 32" fill="none" xmlns="http://www.w3.org/2000/svg">
<path d="M23.2103 31.906C22.9983 31.8434 22.7996 31.7337 22.6141 31.5771L17.8449 28.2878C17.4739 28.0372 17.1891 27.7004 16.9904 27.2775C16.7917 26.8546 16.6923 26.3926 16.6923 25.8913V19.2658C16.6923 18.7646 16.7917 18.3025 16.9904 17.8796C17.1891 17.4567 17.4739 17.1199 17.8449 16.8693L22.6141 13.58C22.7996 13.4234 22.9983 13.3138 23.2103 13.2511C23.4222 13.1884 23.6342 13.1571 23.8462 13.1571C24.0581 13.1571 24.2635 13.1963 24.4622 13.2746C24.6609 13.3529 24.853 13.4547 25.0385 13.58L29.8077 16.8693C30.1786 17.1199 30.4701 17.4567 30.6821 17.8796C30.894 18.3025 31 18.7646 31 19.2658V25.8913C31 26.3926 30.894 26.8546 30.6821 27.2775C30.4701 27.7004 30.1786 28.0372 29.8077 28.2878L25.0385 31.5771C24.853 31.7024 24.6609 31.8042 24.4622 31.8825C24.2635 31.9608 24.0581 32 23.8462 32C23.6342 32 23.4222 31.9687 23.2103 31.906ZM8.22692 12.8282C6.98162 11.3558 6.35897 9.5859 6.35897 7.51836C6.35897 5.45081 6.98162 3.68086 8.22692 2.20852C9.47222 0.736172 10.9692 0 12.7179 0C14.4667 0 15.9637 0.736172 17.209 2.20852C18.4543 3.68086 19.0769 5.45081 19.0769 7.51836C19.0769 9.5859 18.4543 11.3558 17.209 12.8282C15.9637 14.3005 14.4667 15.0367 12.7179 15.0367C10.9692 15.0367 9.47222 14.3005 8.22692 12.8282ZM0 30.0734V24.8106C0 23.7768 0.225214 22.8057 0.675641 21.8972C1.12607 20.9887 1.74872 20.2996 2.54359 19.8297C3.89487 19.0152 5.41838 18.326 7.1141 17.7621C8.80983 17.1982 10.6778 16.9163 12.7179 16.9163H13.2744C13.4333 16.9163 13.5923 16.9476 13.7513 17.0103C13.5393 17.5742 13.3605 18.1615 13.2147 18.7724C13.069 19.3833 12.9564 20.0176 12.8769 20.6755H12.7179C10.8368 20.6755 9.14765 20.9574 7.65064 21.5213C6.15363 22.0852 4.92821 22.649 3.97436 23.2129C3.7359 23.3696 3.5438 23.5888 3.39808 23.8708C3.25235 24.1527 3.17949 24.466 3.17949 24.8106V26.3142H13.1949C13.3538 26.9721 13.5658 27.6221 13.8308 28.2643C14.0957 28.9065 14.3872 29.5095 14.7051 30.0734H0ZM14.9635 10.1733C15.5861 9.4371 15.8974 8.55213 15.8974 7.51836C15.8974 6.48458 15.5861 5.59961 14.9635 4.86344C14.3408 4.12726 13.5923 3.75918 12.7179 3.75918C11.8436 3.75918 11.0951 4.12726 10.4724 4.86344C9.84979 5.59961 9.53846 6.48458 9.53846 7.51836C9.53846 8.55213 9.84979 9.4371 10.4724 10.1733C11.0951 10.9094 11.8436 11.2775 12.7179 11.2775C13.5923 11.2775 14.3408 10.9094 14.9635 10.1733ZM20.1103 18.514L23.8462 21.0984L27.5821 18.514L23.8462 15.9765L20.1103 18.514ZM25.0385 28.2878L28.6154 25.8443V20.6755L25.0385 23.1659V28.2878ZM19.0769 25.8443L22.6538 28.3348V23.2129L19.0769 20.7225V25.8443Z" fill="#8C0774"/>
</svg>
