<svg width="26" height="27" viewBox="0 0 26 27" fill="none" xmlns="http://www.w3.org/2000/svg">
<path d="M6.45833 8C5.74792 8 5.13976 7.73889 4.63385 7.21667C4.12795 6.69444 3.875 6.06667 3.875 5.33333V2.66667C3.875 1.93333 4.12795 1.30556 4.63385 0.783333C5.13976 0.261111 5.74792 0 6.45833 0H19.375C20.0854 0 20.6936 0.261111 21.1995 0.783333C21.7054 1.30556 21.9583 1.93333 21.9583 2.66667V5.33333C21.9583 6.06667 21.7054 6.69444 21.1995 7.21667C20.6936 7.73889 20.0854 8 19.375 8H6.45833ZM6.45833 5.33333H19.375V2.66667H6.45833V5.33333ZM2.58333 26.6667C1.87292 26.6667 1.26476 26.4056 0.758854 25.8833C0.252951 25.3611 0 24.7333 0 24V22.6667H25.8333V24C25.8333 24.7333 25.5804 25.3611 25.0745 25.8833C24.5686 26.4056 23.9604 26.6667 23.25 26.6667H2.58333ZM0 21.3333L4.48854 10.9C4.70382 10.4111 5.02674 10.0278 5.45729 9.75C5.88785 9.47222 6.35069 9.33333 6.84583 9.33333H18.9875C19.4826 9.33333 19.9455 9.47222 20.376 9.75C20.8066 10.0278 21.1295 10.4111 21.3448 10.9L25.8333 21.3333H0ZM8.39583 18.6667H9.6875C9.85972 18.6667 10.0104 18.6 10.1396 18.4667C10.2687 18.3333 10.3333 18.1778 10.3333 18C10.3333 17.8222 10.2687 17.6667 10.1396 17.5333C10.0104 17.4 9.85972 17.3333 9.6875 17.3333H8.39583C8.22361 17.3333 8.07292 17.4 7.94375 17.5333C7.81458 17.6667 7.75 17.8222 7.75 18C7.75 18.1778 7.81458 18.3333 7.94375 18.4667C8.07292 18.6 8.22361 18.6667 8.39583 18.6667ZM8.39583 16H9.6875C9.85972 16 10.0104 15.9333 10.1396 15.8C10.2687 15.6667 10.3333 15.5111 10.3333 15.3333C10.3333 15.1556 10.2687 15 10.1396 14.8667C10.0104 14.7333 9.85972 14.6667 9.6875 14.6667H8.39583C8.22361 14.6667 8.07292 14.7333 7.94375 14.8667C7.81458 15 7.75 15.1556 7.75 15.3333C7.75 15.5111 7.81458 15.6667 7.94375 15.8C8.07292 15.9333 8.22361 16 8.39583 16ZM8.39583 13.3333H9.6875C9.85972 13.3333 10.0104 13.2667 10.1396 13.1333C10.2687 13 10.3333 12.8444 10.3333 12.6667C10.3333 12.4889 10.2687 12.3333 10.1396 12.2C10.0104 12.0667 9.85972 12 9.6875 12H8.39583C8.22361 12 8.07292 12.0667 7.94375 12.2C7.81458 12.3333 7.75 12.4889 7.75 12.6667C7.75 12.8444 7.81458 13 7.94375 13.1333C8.07292 13.2667 8.22361 13.3333 8.39583 13.3333ZM12.2708 18.6667H13.5625C13.7347 18.6667 13.8854 18.6 14.0146 18.4667C14.1437 18.3333 14.2083 18.1778 14.2083 18C14.2083 17.8222 14.1437 17.6667 14.0146 17.5333C13.8854 17.4 13.7347 17.3333 13.5625 17.3333H12.2708C12.0986 17.3333 11.9479 17.4 11.8187 17.5333C11.6896 17.6667 11.625 17.8222 11.625 18C11.625 18.1778 11.6896 18.3333 11.8187 18.4667C11.9479 18.6 12.0986 18.6667 12.2708 18.6667ZM12.2708 16H13.5625C13.7347 16 13.8854 15.9333 14.0146 15.8C14.1437 15.6667 14.2083 15.5111 14.2083 15.3333C14.2083 15.1556 14.1437 15 14.0146 14.8667C13.8854 14.7333 13.7347 14.6667 13.5625 14.6667H12.2708C12.0986 14.6667 11.9479 14.7333 11.8187 14.8667C11.6896 15 11.625 15.1556 11.625 15.3333C11.625 15.5111 11.6896 15.6667 11.8187 15.8C11.9479 15.9333 12.0986 16 12.2708 16ZM12.2708 13.3333H13.5625C13.7347 13.3333 13.8854 13.2667 14.0146 13.1333C14.1437 13 14.2083 12.8444 14.2083 12.6667C14.2083 12.4889 14.1437 12.3333 14.0146 12.2C13.8854 12.0667 13.7347 12 13.5625 12H12.2708C12.0986 12 11.9479 12.0667 11.8187 12.2C11.6896 12.3333 11.625 12.4889 11.625 12.6667C11.625 12.8444 11.6896 13 11.8187 13.1333C11.9479 13.2667 12.0986 13.3333 12.2708 13.3333ZM16.1458 18.6667H17.4375C17.6097 18.6667 17.7604 18.6 17.8896 18.4667C18.0187 18.3333 18.0833 18.1778 18.0833 18C18.0833 17.8222 18.0187 17.6667 17.8896 17.5333C17.7604 17.4 17.6097 17.3333 17.4375 17.3333H16.1458C15.9736 17.3333 15.8229 17.4 15.6937 17.5333C15.5646 17.6667 15.5 17.8222 15.5 18C15.5 18.1778 15.5646 18.3333 15.6937 18.4667C15.8229 18.6 15.9736 18.6667 16.1458 18.6667ZM16.1458 16H17.4375C17.6097 16 17.7604 15.9333 17.8896 15.8C18.0187 15.6667 18.0833 15.5111 18.0833 15.3333C18.0833 15.1556 18.0187 15 17.8896 14.8667C17.7604 14.7333 17.6097 14.6667 17.4375 14.6667H16.1458C15.9736 14.6667 15.8229 14.7333 15.6937 14.8667C15.5646 15 15.5 15.1556 15.5 15.3333C15.5 15.5111 15.5646 15.6667 15.6937 15.8C15.8229 15.9333 15.9736 16 16.1458 16ZM16.1458 13.3333H17.4375C17.6097 13.3333 17.7604 13.2667 17.8896 13.1333C18.0187 13 18.0833 12.8444 18.0833 12.6667C18.0833 12.4889 18.0187 12.3333 17.8896 12.2C17.7604 12.0667 17.6097 12 17.4375 12H16.1458C15.9736 12 15.8229 12.0667 15.6937 12.2C15.5646 12.3333 15.5 12.4889 15.5 12.6667C15.5 12.8444 15.5646 13 15.6937 13.1333C15.8229 13.2667 15.9736 13.3333 16.1458 13.3333Z" fill="#8C0774"/>
</svg>
