<svg width="111" height="20" viewBox="0 0 111 20" fill="none" xmlns="http://www.w3.org/2000/svg">
<path d="M4.375 8.75C3.16667 8.75 2.13542 8.32292 1.28125 7.46875C0.427083 6.61458 0 5.58333 0 4.375C0 3.16667 0.427083 2.13542 1.28125 1.28125C2.13542 0.427083 3.16667 0 4.375 0C5.58333 0 6.61458 0.427083 7.46875 1.28125C8.32292 2.13542 8.75 3.16667 8.75 4.375C8.75 5.58333 8.32292 6.61458 7.46875 7.46875C6.61458 8.32292 5.58333 8.75 4.375 8.75ZM4.375 6.25C4.89583 6.25 5.33854 6.06771 5.70312 5.70312C6.06771 5.33854 6.25 4.89583 6.25 4.375C6.25 3.85417 6.06771 3.41146 5.70312 3.04688C5.33854 2.68229 4.89583 2.5 4.375 2.5C3.85417 2.5 3.41146 2.68229 3.04688 3.04688C2.68229 3.41146 2.5 3.85417 2.5 4.375C2.5 4.89583 2.68229 5.33854 3.04688 5.70312C3.41146 6.06771 3.85417 6.25 4.375 6.25ZM15.625 20C14.4167 20 13.3854 19.5729 12.5312 18.7188C11.6771 17.8646 11.25 16.8333 11.25 15.625C11.25 14.4167 11.6771 13.3854 12.5312 12.5312C13.3854 11.6771 14.4167 11.25 15.625 11.25C16.8333 11.25 17.8646 11.6771 18.7188 12.5312C19.5729 13.3854 20 14.4167 20 15.625C20 16.8333 19.5729 17.8646 18.7188 18.7188C17.8646 19.5729 16.8333 20 15.625 20ZM16.9531 16.9531C17.3177 16.5885 17.5 16.1458 17.5 15.625C17.5 15.1042 17.3177 14.6615 16.9531 14.2969C16.5885 13.9323 16.1458 13.75 15.625 13.75C15.1042 13.75 14.6615 13.9323 14.2969 14.2969C13.9323 14.6615 13.75 15.1042 13.75 15.625C13.75 16.1458 13.9323 16.5885 14.2969 16.9531C14.6615 17.3177 15.1042 17.5 15.625 17.5C16.1458 17.5 16.5885 17.3177 16.9531 16.9531ZM1.75 20L0 18.25L18.25 0L20 1.75L1.75 20Z" fill="#8C0774"/>
<path d="M29.8153 15H25.9482V4.09091H29.8473C30.9446 4.09091 31.8892 4.3093 32.6811 4.74609C33.473 5.17933 34.082 5.80256 34.5082 6.61577C34.9379 7.42898 35.1527 8.40199 35.1527 9.5348C35.1527 10.6712 34.9379 11.6477 34.5082 12.4645C34.082 13.2812 33.4695 13.908 32.6705 14.3448C31.875 14.7816 30.9233 15 29.8153 15ZM28.2546 13.0238H29.7195C30.4013 13.0238 30.9748 12.9031 31.44 12.6616C31.9087 12.4165 32.2603 12.0384 32.4947 11.527C32.7326 11.0121 32.8516 10.348 32.8516 9.5348C32.8516 8.72869 32.7326 8.06996 32.4947 7.55859C32.2603 7.04723 31.9105 6.67081 31.4453 6.42933C30.9801 6.18786 30.4066 6.06712 29.7248 6.06712H28.2546V13.0238ZM36.8612 15V4.09091H44.2121V5.99254H39.1677V8.59197H43.8339V10.4936H39.1677V13.0984H44.2334V15H36.8612ZM51.9638 7.22834C51.9212 6.79865 51.7383 6.46484 51.4151 6.22692C51.092 5.98899 50.6534 5.87003 50.0994 5.87003C49.723 5.87003 49.4052 5.9233 49.146 6.02983C48.8867 6.13281 48.6879 6.27663 48.5494 6.46129C48.4144 6.64595 48.3469 6.85547 48.3469 7.08984C48.3398 7.28516 48.3807 7.45561 48.4695 7.60121C48.5618 7.7468 48.6879 7.87287 48.8477 7.9794C49.0075 8.08239 49.1921 8.17294 49.4016 8.25107C49.6112 8.32564 49.8349 8.38956 50.0728 8.44283L51.0529 8.6772C51.5288 8.78374 51.9656 8.92578 52.3633 9.10334C52.761 9.28089 53.1055 9.49929 53.3967 9.75852C53.6879 10.0178 53.9134 10.3232 54.0732 10.6747C54.2365 11.0263 54.32 11.4293 54.3235 11.8839C54.32 12.5515 54.1495 13.1303 53.8121 13.6204C53.4783 14.1069 52.9954 14.4851 52.3633 14.755C51.7347 15.0213 50.9766 15.1545 50.0888 15.1545C49.2081 15.1545 48.4411 15.0195 47.7876 14.7496C47.1378 14.4798 46.63 14.0803 46.2642 13.5511C45.902 13.0185 45.712 12.3597 45.6942 11.5749H47.9261C47.951 11.9407 48.0558 12.2461 48.2404 12.4911C48.4286 12.7326 48.679 12.9155 48.9915 13.0398C49.3075 13.1605 49.6644 13.2209 50.0621 13.2209C50.4528 13.2209 50.7919 13.1641 51.0795 13.0504C51.3707 12.9368 51.5962 12.7788 51.756 12.5763C51.9158 12.3739 51.9957 12.1413 51.9957 11.8786C51.9957 11.6335 51.9229 11.4276 51.7773 11.2607C51.6353 11.0937 51.4258 10.9517 51.1488 10.8345C50.8754 10.7173 50.5398 10.6108 50.142 10.5149L48.9542 10.2166C48.0344 9.9929 47.3082 9.64311 46.7756 9.16726C46.2429 8.69141 45.9783 8.05043 45.9819 7.24432C45.9783 6.58381 46.1541 6.00675 46.5092 5.51314C46.8679 5.01953 47.3597 4.63423 47.9847 4.35724C48.6097 4.08026 49.32 3.94176 50.1154 3.94176C50.9251 3.94176 51.6317 4.08026 52.2354 4.35724C52.8427 4.63423 53.315 5.01953 53.6523 5.51314C53.9897 6.00675 54.1637 6.57848 54.1744 7.22834H51.9638ZM65.5003 7.91016H63.1672C63.1246 7.60831 63.0376 7.3402 62.9062 7.10582C62.7748 6.8679 62.6061 6.66548 62.4001 6.49858C62.1942 6.33168 61.9562 6.20383 61.6863 6.11506C61.42 6.02628 61.1306 5.98189 60.8181 5.98189C60.2535 5.98189 59.7616 6.12216 59.3426 6.4027C58.9236 6.67969 58.5986 7.08452 58.3678 7.61719C58.137 8.14631 58.0216 8.78906 58.0216 9.54545C58.0216 10.3232 58.137 10.9766 58.3678 11.5057C58.6022 12.0348 58.9289 12.4343 59.3479 12.7042C59.767 12.9741 60.2517 13.109 60.8021 13.109C61.1111 13.109 61.3969 13.0682 61.6597 12.9865C61.926 12.9048 62.1622 12.7859 62.3682 12.6296C62.5741 12.4698 62.7446 12.2763 62.8795 12.049C63.018 11.8217 63.1139 11.5625 63.1672 11.2713L65.5003 11.282C65.4399 11.7827 65.289 12.2656 65.0475 12.7308C64.8096 13.1925 64.4882 13.6062 64.0834 13.9719C63.6821 14.3342 63.2027 14.6218 62.6452 14.8349C62.0912 15.0444 61.4644 15.1491 60.7648 15.1491C59.7918 15.1491 58.9218 14.929 58.1547 14.4886C57.3912 14.0483 56.7876 13.4109 56.3437 12.5763C55.9033 11.7418 55.6831 10.7315 55.6831 9.54545C55.6831 8.35582 55.9069 7.34375 56.3543 6.50923C56.8018 5.67472 57.409 5.03906 58.176 4.60227C58.9431 4.16193 59.806 3.94176 60.7648 3.94176C61.3969 3.94176 61.9829 4.03054 62.5226 4.2081C63.066 4.38565 63.5471 4.64489 63.9662 4.98579C64.3852 5.32315 64.7261 5.73686 64.9889 6.22692C65.2552 6.71697 65.4257 7.27805 65.5003 7.91016ZM77.1791 9.54545C77.1791 10.7351 76.9536 11.7472 76.5026 12.5817C76.0551 13.4162 75.4443 14.0536 74.6702 14.494C73.8996 14.9308 73.0331 15.1491 72.0708 15.1491C71.1013 15.1491 70.2313 14.929 69.4607 14.4886C68.6901 14.0483 68.0811 13.4109 67.6336 12.5763C67.1862 11.7418 66.9624 10.7315 66.9624 9.54545C66.9624 8.35582 67.1862 7.34375 67.6336 6.50923C68.0811 5.67472 68.6901 5.03906 69.4607 4.60227C70.2313 4.16193 71.1013 3.94176 72.0708 3.94176C73.0331 3.94176 73.8996 4.16193 74.6702 4.60227C75.4443 5.03906 76.0551 5.67472 76.5026 6.50923C76.9536 7.34375 77.1791 8.35582 77.1791 9.54545ZM74.8406 9.54545C74.8406 8.77486 74.7252 8.125 74.4944 7.59588C74.2671 7.06676 73.9458 6.66548 73.5303 6.39205C73.1148 6.11861 72.6283 5.98189 72.0708 5.98189C71.5132 5.98189 71.0267 6.11861 70.6112 6.39205C70.1958 6.66548 69.8726 7.06676 69.6418 7.59588C69.4145 8.125 69.3009 8.77486 69.3009 9.54545C69.3009 10.3161 69.4145 10.9659 69.6418 11.495C69.8726 12.0241 70.1958 12.4254 70.6112 12.6989C71.0267 12.9723 71.5132 13.109 72.0708 13.109C72.6283 13.109 73.1148 12.9723 73.5303 12.6989C73.9458 12.4254 74.2671 12.0241 74.4944 11.495C74.7252 10.9659 74.8406 10.3161 74.8406 9.54545ZM88.0123 4.09091V15H86.0201L81.274 8.13388H81.1941V15H78.8876V4.09091H80.9118L85.6206 10.9517H85.7164V4.09091H88.0123ZM89.5024 5.99254V4.09091H98.4619V5.99254H95.1221V15H92.8422V5.99254H89.5024ZM109.464 9.54545C109.464 10.7351 109.239 11.7472 108.788 12.5817C108.34 13.4162 107.729 14.0536 106.955 14.494C106.185 14.9308 105.318 15.1491 104.356 15.1491C103.386 15.1491 102.516 14.929 101.746 14.4886C100.975 14.0483 100.366 13.4109 99.9188 12.5763C99.4713 11.7418 99.2476 10.7315 99.2476 9.54545C99.2476 8.35582 99.4713 7.34375 99.9188 6.50923C100.366 5.67472 100.975 5.03906 101.746 4.60227C102.516 4.16193 103.386 3.94176 104.356 3.94176C105.318 3.94176 106.185 4.16193 106.955 4.60227C107.729 5.03906 108.34 5.67472 108.788 6.50923C109.239 7.34375 109.464 8.35582 109.464 9.54545ZM107.126 9.54545C107.126 8.77486 107.01 8.125 106.78 7.59588C106.552 7.06676 106.231 6.66548 105.815 6.39205C105.4 6.11861 104.913 5.98189 104.356 5.98189C103.798 5.98189 103.312 6.11861 102.896 6.39205C102.481 6.66548 102.158 7.06676 101.927 7.59588C101.7 8.125 101.586 8.77486 101.586 9.54545C101.586 10.3161 101.7 10.9659 101.927 11.495C102.158 12.0241 102.481 12.4254 102.896 12.6989C103.312 12.9723 103.798 13.109 104.356 13.109C104.913 13.109 105.4 12.9723 105.815 12.6989C106.231 12.4254 106.552 12.0241 106.78 11.495C107.01 10.9659 107.126 10.3161 107.126 9.54545Z" fill="#8C0774"/>
</svg>
