<svg width="111" height="24" viewBox="0 0 111 24" fill="none" xmlns="http://www.w3.org/2000/svg">
<path d="M1.375 15.6818C0.916667 15.1061 0.572917 14.5152 0.34375 13.9091C0.114583 13.303 0 12.6818 0 12.0455C0 10.0152 0.96875 8.28788 2.90625 6.86364C4.84375 5.43939 7.20833 4.72727 10 4.72727H10.2188L8.21875 3.27273L9.96875 2L14.9688 5.63636L9.96875 9.27273L8.21875 8L10.2188 6.54545H10C7.91667 6.54545 6.14583 7.07955 4.6875 8.14773C3.22917 9.21591 2.5 10.5152 2.5 12.0455C2.5 12.4394 2.5625 12.8258 2.6875 13.2045C2.8125 13.5833 3 13.9545 3.25 14.3182L1.375 15.6818ZM10.0312 22L5.03125 18.3636L10.0312 14.7273L11.7812 16L9.78125 17.4545H10C12.0833 17.4545 13.8542 16.9205 15.3125 15.8523C16.7708 14.7841 17.5 13.4848 17.5 11.9545C17.5 11.5606 17.4375 11.1742 17.3125 10.7955C17.1875 10.4167 17 10.0455 16.75 9.68182L18.625 8.31818C19.0833 8.89394 19.4271 9.48485 19.6562 10.0909C19.8854 10.697 20 11.3182 20 11.9545C20 13.9848 19.0312 15.7121 17.0938 17.1364C15.1562 18.5606 12.7917 19.2727 10 19.2727H9.78125L11.7812 20.7273L10.0312 22Z" fill="#8C0774"/>
<path d="M26.7102 6.99006V4.45455H38.6562V6.99006H34.2031V19H31.1634V6.99006H26.7102ZM40.6236 19V4.45455H46.3622C47.4607 4.45455 48.3982 4.65104 49.1747 5.04403C49.956 5.43229 50.5502 5.9839 50.9574 6.69886C51.3693 7.40909 51.5753 8.24479 51.5753 9.20597C51.5753 10.1719 51.367 11.0028 50.9503 11.6989C50.5336 12.3902 49.9299 12.9205 49.1392 13.2898C48.3532 13.6591 47.4015 13.8438 46.2841 13.8438H42.4418V11.3722H45.7869C46.3741 11.3722 46.8617 11.2917 47.25 11.1307C47.6383 10.9697 47.9271 10.7282 48.1165 10.4062C48.3106 10.0843 48.4077 9.68419 48.4077 9.20597C48.4077 8.72301 48.3106 8.31581 48.1165 7.98438C47.9271 7.65294 47.6359 7.40199 47.2429 7.23153C46.8546 7.05634 46.3646 6.96875 45.7727 6.96875H43.6989V19H40.6236ZM48.4787 12.3807L52.0938 19H48.6989L45.1619 12.3807H48.4787ZM67.1151 11.7273C67.1151 13.3134 66.8144 14.6629 66.2131 15.7756C65.6165 16.8883 64.8021 17.7382 63.7699 18.3253C62.7424 18.9077 61.5871 19.1989 60.304 19.1989C59.0114 19.1989 57.8513 18.9053 56.8239 18.3182C55.7964 17.7311 54.9844 16.8812 54.3878 15.7685C53.7912 14.6558 53.4929 13.3087 53.4929 11.7273C53.4929 10.1411 53.7912 8.79167 54.3878 7.67898C54.9844 6.56629 55.7964 5.71875 56.8239 5.13636C57.8513 4.54924 59.0114 4.25568 60.304 4.25568C61.5871 4.25568 62.7424 4.54924 63.7699 5.13636C64.8021 5.71875 65.6165 6.56629 66.2131 7.67898C66.8144 8.79167 67.1151 10.1411 67.1151 11.7273ZM63.9972 11.7273C63.9972 10.6998 63.8433 9.83333 63.5355 9.12784C63.2325 8.42235 62.804 7.88731 62.25 7.52273C61.696 7.15814 61.0473 6.97585 60.304 6.97585C59.5606 6.97585 58.9119 7.15814 58.358 7.52273C57.804 7.88731 57.3731 8.42235 57.0653 9.12784C56.7623 9.83333 56.6108 10.6998 56.6108 11.7273C56.6108 12.7547 56.7623 13.6212 57.0653 14.3267C57.3731 15.0322 57.804 15.5672 58.358 15.9318C58.9119 16.2964 59.5606 16.4787 60.304 16.4787C61.0473 16.4787 61.696 16.2964 62.25 15.9318C62.804 15.5672 63.2325 15.0322 63.5355 14.3267C63.8433 13.6212 63.9972 12.7547 63.9972 11.7273ZM82.2269 9.54688H79.1161C79.0593 9.14441 78.9433 8.78693 78.7681 8.47443C78.5929 8.1572 78.368 7.88731 78.0934 7.66477C77.8188 7.44223 77.5015 7.27178 77.1417 7.15341C76.7866 7.03504 76.4007 6.97585 75.984 6.97585C75.2312 6.97585 74.5754 7.16288 74.0167 7.53693C73.458 7.90625 73.0247 8.44602 72.717 9.15625C72.4092 9.86174 72.2553 10.7187 72.2553 11.7273C72.2553 12.7642 72.4092 13.6354 72.717 14.3409C73.0295 15.0464 73.4651 15.5791 74.0238 15.9389C74.5825 16.2988 75.2288 16.4787 75.9627 16.4787C76.3746 16.4787 76.7558 16.4242 77.1062 16.3153C77.4613 16.2064 77.7762 16.0478 78.0508 15.8395C78.3254 15.6264 78.5527 15.3684 78.7326 15.0653C78.9173 14.7623 79.0451 14.4167 79.1161 14.0284L82.2269 14.0426C82.1464 14.7102 81.9452 15.3542 81.6232 15.9744C81.306 16.59 80.8775 17.1416 80.3377 17.6293C79.8027 18.1122 79.1635 18.4957 78.4201 18.7798C77.6815 19.0592 76.8458 19.1989 75.913 19.1989C74.6156 19.1989 73.4556 18.9053 72.4329 18.3182C71.4149 17.7311 70.61 16.8812 70.0181 15.7685C69.431 14.6558 69.1374 13.3087 69.1374 11.7273C69.1374 10.1411 69.4357 8.79167 70.0323 7.67898C70.6289 6.56629 71.4386 5.71875 72.4613 5.13636C73.484 4.54924 74.6346 4.25568 75.913 4.25568C76.7558 4.25568 77.5371 4.37405 78.2567 4.6108C78.9812 4.84754 79.6228 5.19318 80.1815 5.64773C80.7402 6.09754 81.1947 6.64915 81.5451 7.30256C81.9002 7.95597 82.1275 8.70407 82.2269 9.54688ZM86.6658 19H83.3704L88.3917 4.45455H92.3548L97.369 19H94.0735L90.43 7.77841H90.3164L86.6658 19ZM86.4599 13.2827H94.244V15.6832H86.4599V13.2827Z" fill="#8C0774"/>
</svg>
