<svg width="31" height="32" viewBox="0 0 31 32" fill="none" xmlns="http://www.w3.org/2000/svg">
<path d="M7.1172 31.06C6.50956 30.4333 6.20573 29.68 6.20573 28.8C6.20573 27.92 6.50956 27.1667 7.1172 26.54C7.72484 25.9133 8.45531 25.6 9.3086 25.6C10.1619 25.6 10.8924 25.9133 11.5 26.54C12.1076 27.1667 12.4115 27.92 12.4115 28.8C12.4115 29.68 12.1076 30.4333 11.5 31.06C10.8924 31.6867 10.1619 32 9.3086 32C8.45531 32 7.72484 31.6867 7.1172 31.06ZM22.6315 31.06C22.0239 30.4333 21.7201 29.68 21.7201 28.8C21.7201 27.92 22.0239 27.1667 22.6315 26.54C23.2392 25.9133 23.9696 25.6 24.8229 25.6C25.6762 25.6 26.4067 25.9133 27.0143 26.54C27.622 27.1667 27.9258 27.92 27.9258 28.8C27.9258 29.68 27.622 30.4333 27.0143 31.06C26.4067 31.6867 25.6762 32 24.8229 32C23.9696 32 23.2392 31.6867 22.6315 31.06ZM7.98988 6.4L11.7133 14.4H22.5734L26.8398 6.4H7.98988ZM6.51602 3.2H29.3997C29.9944 3.2 30.4469 3.47333 30.7572 4.02C31.0675 4.56667 31.0804 5.12 30.796 5.68L25.2884 15.92C25.0039 16.4533 24.6225 16.8667 24.1442 17.16C23.6658 17.4533 23.1422 17.6 22.5734 17.6H11.0152L9.3086 20.8H27.9258V24H9.3086C8.14503 24 7.26588 23.4733 6.67116 22.42C6.07645 21.3667 6.05059 20.32 6.59359 19.28L8.68803 15.36L3.10287 3.2H0V0H5.04216L6.51602 3.2Z" fill="#8C0774"/>
</svg>
