<svg width="31" height="32" viewBox="0 0 31 32" fill="none" xmlns="http://www.w3.org/2000/svg">
<path d="M6.88889 24.8889H10.3333V16H6.88889V24.8889ZM20.6667 24.8889H24.1111V7.11111H20.6667V24.8889ZM13.7778 24.8889H17.2222V19.5556H13.7778V24.8889ZM13.7778 16H17.2222V12.4444H13.7778V16ZM3.44444 32C2.49722 32 1.68634 31.6519 1.01181 30.9556C0.337269 30.2593 0 29.4222 0 28.4444V3.55556C0 2.57778 0.337269 1.74074 1.01181 1.04444C1.68634 0.348148 2.49722 0 3.44444 0H27.5556C28.5028 0 29.3137 0.348148 29.9882 1.04444C30.6627 1.74074 31 2.57778 31 3.55556V28.4444C31 29.4222 30.6627 30.2593 29.9882 30.9556C29.3137 31.6519 28.5028 32 27.5556 32H3.44444ZM3.44444 28.4444H27.5556V3.55556H3.44444V28.4444Z" fill="#8C0774"/>
</svg>
